<svg xmlns="http://www.w3.org/2000/svg" width="64" height="64" viewBox="0 0 64 64" fill="none">
  <rect width="64" height="64" rx="12" fill="url(#paint0_linear)" />
  <path d="M40.8 36.8L48 44L44 48L36.8 40.8C35.2 42.08 33.2 42.8 31.2 42.8C26 42.8 21.6 38.4 21.6 33.2C21.6 28 26 23.6 31.2 23.6C36.4 23.6 40.8 28 40.8 33.2C40.8 35.2 40.08 37.2 38.8 38.8L40.8 36.8ZM31.2 38.8C34.24 38.8 36.8 36.24 36.8 33.2C36.8 30.16 34.24 27.6 31.2 27.6C28.16 27.6 25.6 30.16 25.6 33.2C25.6 36.24 28.16 38.8 31.2 38.8Z" fill="white"/>
  <defs>
    <linearGradient id="paint0_linear" x1="0" y1="0" x2="64" y2="64" gradientUnits="userSpaceOnUse">
      <stop stop-color="#8B5CF6"/>
      <stop offset="1" stop-color="#4F46E5"/>
    </linearGradient>
  </defs>
</svg>